<?xml version="1.0" standalone="no"?>
<!DOCTYPE svg PUBLIC "-//W3C//DTD SVG 20010904//EN"
 "http://www.w3.org/TR/2001/REC-SVG-20010904/DTD/svg10.dtd">
<svg version="1.0" xmlns="http://www.w3.org/2000/svg"
 width="768.000000pt" height="768.000000pt" viewBox="0 0 768.000000 768.000000"
 preserveAspectRatio="xMidYMid meet">
<metadata>
Created by potrace 1.11, written by Peter Selinger 2001-2013
</metadata>
<g transform="translate(0.000000,768.000000) scale(0.100000,-0.100000)"
fill="#000000" stroke="none">
<path d="M4917 7183 c-4 -3 -7 -16 -6 -27 0 -19 1 -19 10 3 10 24 8 36 -4 24z"/>
<path d="M4940 7173 c0 -5 4 -14 9 -21 6 -10 10 -9 14 7 3 14 0 21 -9 21 -8 0
-14 -3 -14 -7z"/>
<path d="M4202 7093 c-8 -39 -9 -59 -1 -63 14 -9 -186 -20 -374 -20 -92 0
-156 -4 -153 -9 14 -23 148 -34 352 -29 l208 5 55 -29 c78 -41 87 -51 73 -83
-7 -14 -12 -33 -12 -41 0 -12 4 -12 25 2 14 9 25 13 25 9 0 -4 6 -3 13 2 13
11 280 15 275 4 -2 -3 -16 -32 -32 -63 -16 -32 -32 -58 -37 -58 -5 0 -9 -5 -9
-10 0 -6 6 -10 13 -9 29 4 57 -2 57 -11 0 -5 -15 -10 -32 -10 -24 0 -44 -10
-71 -35 -22 -20 -43 -32 -52 -29 -9 4 -15 0 -15 -10 0 -9 -4 -16 -9 -16 -14 0
-201 -191 -201 -206 0 -8 6 -11 17 -7 10 4 14 2 10 -4 -4 -6 -4 -13 0 -15 11
-4 54 -64 82 -112 17 -29 18 -36 6 -26 -15 13 -20 11 -41 -15 -13 -17 -24 -36
-24 -42 0 -25 -18 -12 -60 43 -41 55 -67 70 -35 20 11 -16 13 -26 6 -26 -6 0
-11 6 -11 13 0 8 -9 22 -20 32 -22 20 -27 40 -7 29 6 -4 8 -3 4 1 -13 15 -35
16 -266 21 -222 4 -225 4 -249 -18 -23 -21 -25 -21 -18 -3 4 11 3 16 -1 11 -4
-4 -15 -33 -24 -64 -17 -61 -47 -89 -36 -34 19 93 115 227 148 206 9 -5 10 -2
6 10 -16 41 145 264 204 285 18 6 73 11 123 11 50 0 96 4 102 8 17 11 5 80
-15 86 -9 2 -38 7 -66 11 -93 12 -122 23 -129 50 -4 16 -11 22 -21 19 -8 -4
-47 1 -87 9 -40 9 -106 19 -146 22 -68 7 -76 5 -112 -19 -47 -31 -49 -44 -14
-77 15 -13 33 -39 41 -57 7 -18 18 -32 24 -30 6 2 9 8 7 13 -2 6 -7 8 -13 7
-5 -2 -7 0 -2 4 10 11 47 13 41 2 -3 -4 0 -8 5 -8 21 0 11 -27 -14 -40 -16 -9
-25 -22 -26 -39 0 -18 -5 -11 -16 24 -8 28 -33 73 -54 101 l-40 52 -82 -3
c-45 -1 -145 -7 -222 -11 -77 -5 -147 -8 -157 -7 -14 2 -62 -48 -111 -116 -20
-27 -20 -24 -2 37 6 18 -32 42 -68 42 -10 0 -57 16 -104 35 -47 20 -88 33 -91
30 -3 -3 2 -20 11 -38 26 -50 24 -90 -17 -260 -32 -133 -42 -160 -62 -174 -13
-8 -35 -13 -49 -11 -30 6 -31 4 -5 -32 11 -15 18 -29 16 -31 -2 -2 5 -13 15
-23 19 -19 19 -19 19 21 0 43 8 73 19 73 8 0 -7 -418 -18 -500 -7 -52 -8 -40
-4 58 l6 122 -27 0 c-15 0 -36 -4 -46 -10 -26 -14 -34 -51 -38 -184 l-2 -58
-19 23 c-18 23 -18 25 -1 69 19 49 13 86 -16 97 -8 3 -12 9 -7 12 15 11 43 69
43 88 0 11 -6 28 -14 39 -10 13 -11 23 -4 31 6 7 8 13 4 13 -4 0 1 14 10 31
12 25 14 37 5 55 -12 27 -6 50 15 58 11 4 12 11 6 23 -6 10 -6 25 -1 37 5 12
18 63 29 115 11 52 27 102 35 111 20 22 19 40 -3 40 -10 0 -26 15 -36 34 -16
31 -17 42 -7 102 10 54 10 69 -1 75 -21 14 -26 11 -33 -23 -3 -18 -11 -56 -17
-85 l-11 -52 -169 2 -170 2 7 40 c19 122 19 124 -3 118 -17 -4 -23 -18 -33
-76 -9 -57 -19 -80 -47 -114 -25 -29 -42 -41 -53 -38 -21 7 -34 -11 -21 -28 7
-8 3 -44 -14 -112 -29 -118 -28 -107 -45 -497 -9 -205 -16 -305 -23 -298 -6 6
-19 10 -30 10 -12 0 -16 -4 -11 -8 12 -8 13 -42 2 -59 -4 -7 -1 -52 8 -100 9
-48 18 -104 21 -123 5 -33 5 -34 -10 -16 -9 11 -19 16 -23 12 -5 -4 1 -15 12
-24 12 -10 58 -66 104 -127 86 -114 131 -155 222 -201 61 -30 69 -38 69 -75 0
-35 11 -39 165 -49 71 -5 153 -13 180 -19 28 -5 95 -9 149 -10 67 -1 105 -5
115 -14 55 -47 129 -73 380 -137 303 -78 333 -89 349 -125 15 -33 15 -45 0
-78 -17 -35 -46 -35 -93 3 -21 17 -47 30 -59 30 -11 1 -66 7 -120 14 -130 17
-196 5 -235 -45 -14 -19 -73 -89 -131 -157 l-105 -123 -401 1 c-356 1 -404 -1
-418 -15 -9 -9 -16 -22 -16 -28 0 -8 -3 -9 -8 -1 -26 37 -55 44 -199 44 -119
0 -144 -3 -158 -17 -16 -16 -18 -16 -27 0 -8 15 -28 17 -152 17 -106 0 -147
-4 -161 -14 -19 -13 -19 -28 -17 -323 l3 -308 -81 -79 c-44 -43 -80 -74 -80
-68 0 6 -7 18 -16 26 -13 14 -53 16 -286 16 l-272 0 -73 -73 -73 -73 0 -87 c0
-106 8 -117 87 -117 40 0 62 -5 76 -17 28 -26 306 -26 354 0 41 22 168 24 189
3 28 -29 230 -32 300 -6 12 5 65 52 118 104 l96 95 0 -74 c0 -92 10 -105 86
-105 35 0 64 -6 81 -18 24 -15 58 -17 283 -18 417 -3 400 -2 407 -21 3 -10 14
-27 25 -39 10 -12 19 -38 20 -60 1 -21 14 -64 28 -94 15 -30 33 -73 40 -95 7
-22 39 -105 72 -185 53 -131 63 -150 111 -193 28 -26 63 -54 77 -61 14 -8 40
-21 58 -31 58 -30 65 -80 13 -91 -45 -10 -49 -12 -61 -33 -8 -17 -8 -21 4 -21
8 0 17 4 21 9 3 6 17 4 33 -5 15 -7 36 -14 47 -14 28 0 47 -14 40 -31 -4 -10
23 -24 105 -52 74 -26 108 -43 103 -50 -4 -7 -23 -37 -44 -67 -43 -65 -109
-193 -109 -214 0 -8 -11 -23 -25 -34 -14 -11 -25 -25 -25 -31 0 -6 -5 -11 -11
-11 -5 0 -7 -4 -4 -10 3 -5 -10 -38 -30 -72 -20 -35 -47 -87 -62 -116 -16 -33
-40 -63 -66 -81 l-40 -27 -81 34 c-45 20 -96 44 -113 54 -33 17 -33 17 -33 -3
0 -28 49 -73 105 -95 36 -15 44 -23 42 -42 -2 -34 -94 -116 -137 -123 l-35 -6
39 -2 c32 -1 37 -3 27 -15 -10 -12 -8 -17 9 -26 12 -6 23 -10 25 -8 7 7 7 44
0 62 -11 25 14 40 36 20 9 -8 61 -30 115 -48 69 -24 94 -36 82 -41 -10 -4 -18
-13 -18 -20 0 -7 -29 -34 -65 -60 -36 -25 -65 -48 -65 -51 0 -6 42 17 95 52
16 11 26 14 22 7 -13 -22 -195 -153 -211 -153 -19 0 -21 11 -4 28 9 9 1 16
-33 31 -24 12 -50 21 -58 21 -10 0 -6 9 11 28 15 15 28 41 30 57 2 22 8 30 22
30 11 0 21 5 23 12 7 19 -36 7 -55 -16 -17 -20 -17 -20 -77 0 -33 10 -67 18
-75 16 -8 -2 13 -12 48 -22 34 -11 61 -23 60 -26 -4 -10 -218 -179 -255 -201
-17 -10 -34 -26 -37 -34 -3 -9 -11 -14 -17 -12 -7 2 -24 -9 -40 -24 -15 -15
-37 -28 -49 -28 l-22 0 20 -17 c21 -18 64 -141 55 -157 -3 -4 -9 -3 -13 3 -8
14 -103 41 -142 41 -20 0 -28 -5 -28 -17 0 -14 2 -15 9 -5 7 11 9 11 14 -2 4
-9 13 -16 20 -16 7 0 19 -11 27 -24 12 -23 14 -24 36 -10 20 14 25 14 48 -1
14 -10 26 -21 26 -26 0 -5 8 -9 18 -9 14 0 15 -2 2 -10 -13 -8 -13 -10 -1 -10
8 0 24 9 35 19 12 11 28 20 36 22 23 3 50 -11 50 -28 0 -8 -4 -12 -9 -8 -6 3
-9 -4 -8 -15 1 -20 27 -29 27 -10 0 6 11 10 25 10 14 0 25 5 25 11 0 5 5 7 12
3 7 -5 8 -3 4 5 -5 7 -14 10 -22 7 -8 -3 -11 0 -7 10 3 7 16 14 28 14 27 0 67
44 59 65 -13 33 30 95 113 162 45 36 80 70 77 75 -3 4 4 8 14 8 11 0 25 7 32
14 6 8 35 30 63 47 29 18 68 46 89 61 l36 28 69 -16 c37 -8 72 -19 76 -24 5
-4 -26 -34 -70 -66 -43 -31 -107 -82 -142 -111 -49 -42 -69 -53 -90 -50 -14 2
-20 2 -13 0 6 -3 12 -8 12 -12 0 -11 -50 -32 -60 -26 -5 3 -10 -5 -12 -17 -2
-13 -15 -28 -30 -36 -35 -17 -35 -29 0 -72 27 -33 52 -88 52 -115 0 -10 -13
-9 -57 1 -32 7 -66 11 -76 8 -11 -4 -24 1 -32 13 -7 10 -17 15 -21 11 -9 -9
14 -38 30 -38 6 0 17 -8 24 -18 14 -19 85 -24 111 -8 10 7 20 2 35 -17 16 -20
33 -26 76 -31 47 -5 63 -2 110 22 30 16 54 34 52 40 -3 16 15 15 22 0 3 -10 9
-8 19 5 8 9 19 17 24 17 30 0 112 44 121 65 7 15 26 28 52 36 33 10 44 21 62
56 12 24 27 42 33 39 7 -2 29 6 51 19 112 67 164 95 212 111 30 11 55 26 58
37 3 10 27 44 54 76 53 64 140 111 214 116 23 2 55 9 71 15 59 24 91 28 116
14 38 -21 68 -16 136 21 l63 35 0 -25 c0 -13 -6 -28 -13 -32 -18 -11 -50 -100
-43 -119 3 -9 -1 -36 -9 -60 -14 -41 -12 -74 5 -74 12 0 38 33 50 65 7 17 14
25 17 18 3 -8 15 -5 39 9 25 15 34 27 32 42 -1 11 2 22 7 24 19 5 16 -47 -5
-89 -24 -47 -23 -108 3 -137 8 -9 17 -29 21 -44 6 -24 3 -27 -26 -30 -29 -3
-33 -7 -35 -35 -1 -24 2 -30 13 -26 8 3 14 -1 14 -11 0 -9 -8 -16 -20 -16 -13
0 -18 -5 -14 -15 7 -18 62 -20 150 -3 54 10 66 9 81 -4 24 -20 53 -30 53 -17
0 6 10 9 23 7 25 -3 30 -29 7 -35 -12 -4 -12 -3 -1 5 10 8 11 11 1 17 -8 5
-18 1 -25 -8 -7 -9 -15 -14 -18 -10 -4 3 -7 -1 -7 -9 0 -10 13 -18 33 -23 55
-11 83 -9 128 13 24 11 75 24 112 27 67 7 68 8 93 50 34 59 49 69 94 67 29 -2
45 3 62 20 19 19 20 23 7 26 -9 2 -21 14 -28 28 -6 14 -24 32 -40 42 -18 10
-40 39 -57 75 -40 82 -49 87 -73 38 -12 -22 -21 -53 -21 -68 0 -15 -4 -34 -9
-42 -9 -14 -111 -45 -119 -36 -3 3 0 5 6 5 7 0 12 5 12 10 0 6 -18 10 -40 10
-34 0 -42 4 -50 26 -17 43 -12 69 19 92 16 11 31 33 34 49 20 97 31 140 42
153 7 8 15 23 18 33 6 16 9 17 36 2 20 -10 58 -15 113 -15 l83 0 29 46 c51 80
98 120 152 128 77 10 94 7 124 -22 l30 -27 -60 -100 c-89 -150 -84 -145 -122
-134 -18 5 -71 8 -118 8 -101 -2 -89 -6 43 -14 106 -7 112 -13 76 -60 -20 -24
-21 -31 -11 -75 6 -27 9 -71 5 -99 -5 -43 -9 -50 -29 -53 l-23 -3 27 -30 c20
-23 34 -29 57 -27 l30 2 -27 -21 c-16 -11 -28 -26 -28 -32 0 -6 9 -1 20 11 11
12 26 19 34 16 12 -5 71 32 176 108 19 14 52 20 138 25 62 3 115 10 118 15 14
22 24 2 24 -50 0 -71 19 -104 57 -98 13 3 33 0 43 -7 15 -9 23 -8 39 7 18 16
27 17 88 7 67 -10 116 -14 160 -12 12 1 38 14 56 31 36 31 57 38 57 19 0 -8 4
-8 14 0 8 7 17 8 20 3 9 -15 55 -21 60 -8 2 6 5 3 5 -6 1 -26 29 -22 33 5 4
29 32 29 36 0 2 -13 10 -23 18 -23 11 0 14 8 10 33 -11 66 -11 80 2 84 9 4 12
-8 11 -41 -3 -64 34 -99 69 -64 18 18 15 68 -3 68 -9 0 -15 -9 -15 -25 0 -14
-4 -25 -8 -25 -13 0 -33 48 -22 55 5 3 7 12 4 19 -4 10 7 15 41 18 55 4 75
-12 75 -63 -1 -28 -2 -31 -11 -16 -13 23 -29 22 -29 -2 0 -47 56 -53 78 -9 10
23 10 33 -2 63 l-15 35 52 38 c29 21 72 52 97 70 48 33 72 57 110 110 13 18
31 32 40 31 31 -5 100 22 119 46 10 14 45 47 78 73 32 26 61 52 65 58 4 7 19
15 32 18 13 3 38 23 55 45 l31 38 56 -18 c50 -17 59 -17 91 -4 20 8 46 15 59
15 13 0 24 4 24 9 0 5 29 11 64 13 35 2 71 10 80 17 14 12 16 79 16 666 l0
653 -42 -15 c-100 -35 -355 -94 -384 -89 -18 2 -49 0 -70 -5 -25 -5 -51 -5
-72 2 -26 9 -44 7 -82 -5 -27 -9 -59 -16 -72 -16 -13 0 -41 -9 -63 -20 -46
-24 -55 -24 -88 -7 -18 10 -43 11 -84 6 -92 -11 -134 -26 -203 -72 -36 -23
-85 -50 -109 -60 l-44 -16 5 112 c3 63 1 123 -5 137 -5 14 -15 68 -23 120 -7
52 -24 123 -38 157 -19 46 -24 73 -20 105 3 29 0 51 -10 68 -9 14 -19 33 -22
43 -3 9 -10 17 -16 17 -5 0 -18 8 -29 19 l-20 18 21 6 c43 11 52 62 48 298 -2
121 -1 219 1 219 3 0 118 -112 256 -250 201 -200 257 -250 278 -250 14 0 42
-9 61 -21 44 -26 167 -37 219 -20 67 22 85 82 47 154 -11 20 -20 49 -20 63 0
21 -32 58 -145 172 -80 79 -145 148 -145 153 0 4 29 38 65 74 36 36 65 67 65
70 0 3 36 40 81 83 44 42 87 90 95 105 16 30 12 90 -7 113 -6 7 -11 37 -12 66
-3 86 -7 88 -181 88 l-150 0 -252 -251 c-179 -179 -253 -246 -257 -235 -3 8
-4 65 -1 126 6 110 -7 210 -27 210 -5 0 -9 27 -9 60 0 44 -5 64 -18 77 -10 10
-26 45 -36 78 -22 72 -58 138 -88 160 -13 8 -38 15 -58 15 -23 0 -39 6 -46 18
-7 10 -35 30 -64 45 -62 32 -99 34 -332 12 -226 -21 -262 -30 -290 -71 -24
-36 -71 -50 -133 -41 -25 3 -30 8 -28 28 1 13 -3 40 -8 60 -9 30 -8 42 10 78
26 50 41 56 175 78 87 13 113 22 197 69 54 30 102 54 107 54 6 0 38 21 71 46
73 55 96 54 138 -6 15 -22 33 -40 40 -40 7 0 17 -9 22 -19 7 -13 26 -21 58
-25 234 -28 512 -37 536 -17 10 7 17 19 17 25 1 22 70 56 116 56 65 0 81 12
100 78 54 193 50 185 114 233 32 24 61 53 64 64 20 81 58 372 63 488 9 215
-13 558 -44 687 -22 94 -32 115 -87 195 -34 50 -81 123 -105 163 -23 39 -49
72 -57 72 -13 0 -13 -2 -2 -14 9 -9 13 -27 10 -52 -5 -39 -6 -39 -37 10 -6 10
-27 17 -56 18 -26 2 -45 5 -44 8 5 8 -13 35 -19 29 -3 -3 9 -40 26 -83 l32
-79 -12 -141 c-26 -293 -52 -809 -52 -1024 0 -165 -3 -221 -11 -216 -9 5 -10
71 -7 240 l6 232 -70 4 c-41 2 -72 -1 -74 -7 -2 -5 -2 -76 -1 -157 1 -80 -1
-144 -5 -141 -5 2 -12 2 -18 -2 -12 -7 -1 -35 14 -35 7 0 10 -19 8 -59 -2 -33
1 -68 7 -79 9 -17 5 -26 -21 -56 -34 -38 -65 -49 -53 -18 4 11 3 14 -4 7 -5
-5 -11 -28 -14 -50 -3 -34 -4 -32 -5 15 -1 30 -6 71 -12 90 -6 21 -6 47 -1 67
9 32 -1 47 -13 18 -3 -9 -18 -15 -36 -15 l-31 0 25 33 c13 17 26 43 28 57 3
21 8 25 34 22 38 -4 51 11 58 68 6 49 -15 96 -37 84 -7 -4 -4 1 5 12 39 45 26
124 -21 124 -45 0 -65 -65 -34 -110 16 -22 16 -23 -1 -17 -10 4 -19 1 -23 -9
-4 -11 -9 -8 -20 13 -8 15 -16 35 -17 43 -2 8 -14 17 -27 21 l-24 6 25 4 c35
6 56 52 40 87 -11 26 -11 26 8 9 15 -14 22 -15 28 -6 5 8 3 10 -6 4 -9 -5 -11
-4 -6 4 6 9 11 9 22 0 12 -10 12 -14 2 -21 -8 -6 -4 -7 12 -3 58 16 83 83 47
123 -13 14 -14 21 -5 30 9 9 9 12 -1 12 -8 0 -5 9 8 26 23 29 26 55 11 85 -23
41 -90 8 -90 -45 0 -43 -14 -2 -17 50 -2 31 -8 66 -14 78 -10 20 -10 20 5 2 9
-11 16 -23 16 -27 0 -4 8 -10 18 -14 86 -36 137 35 90 124 l-24 44 23 23 c25
25 29 54 13 85 -14 25 -55 24 -74 -2 -9 -13 -19 -18 -28 -14 -10 6 -11 5 0 -6
6 -7 12 -20 11 -29 0 -9 -4 -6 -10 8 -5 13 -14 20 -20 17 -6 -4 -4 7 5 23 9
17 16 37 16 44 0 10 17 12 68 10 l69 -4 6 61 c4 33 4 73 1 89 -4 19 -1 32 10
41 22 18 10 44 -15 30 -15 -7 -19 -6 -19 5 0 8 -13 40 -30 71 -21 40 -30 71
-30 104 0 35 3 42 11 31 8 -11 9 -4 6 28 -3 27 -1 42 6 42 8 0 8 3 0 11 -21
21 -30 0 -37 -81 -5 -48 -12 -83 -19 -85 -7 -2 -92 -6 -189 -8 l-178 -5 5 87
4 86 -14 -80 c-7 -44 -14 -81 -14 -83 -1 -2 -5 0 -11 3 -5 3 -10 1 -10 -6 0
-7 -17 -39 -37 -71 -28 -43 -42 -56 -55 -52 -19 6 -26 -20 -9 -30 5 -3 -4 -68
-20 -143 -43 -204 -59 -566 -36 -778 19 -167 21 -205 9 -205 -12 0 -33 106
-39 195 -3 44 -6 81 -7 81 0 1 -16 5 -35 9 l-34 7 6 -58 c4 -33 10 -70 13 -84
6 -21 4 -23 -7 -12 -35 32 -12 734 30 947 30 148 37 171 60 210 26 45 27 53 2
31 -12 -11 -21 -14 -26 -7 -3 6 -14 11 -23 11 -9 0 -35 16 -57 36 -22 19 -53
47 -70 62 l-30 27 -269 2 c-148 2 -271 5 -273 7 -3 2 15 15 39 29 42 24 47 25
352 31 343 7 363 10 350 64 -11 45 -22 59 -51 65 -15 3 -36 9 -45 12 -12 5
-18 2 -18 -8 0 -8 -13 -20 -30 -26 -23 -7 -30 -16 -30 -35 0 -26 -1 -26 -82
-27 -46 0 -164 -1 -262 -2 -136 -2 -180 1 -183 11 -3 7 3 12 14 12 15 0 16 -2
3 -10 -12 -8 -9 -10 13 -10 16 0 26 4 23 9 -3 5 42 7 102 5 73 -2 94 0 67 5
-58 12 -262 23 -249 14 6 -4 11 -16 11 -26 0 -16 -1 -16 -20 0 -19 17 -20 17
-14 1 6 -16 0 -18 -41 -16 -43 1 -44 2 -9 5 20 2 37 8 37 13 0 5 3 17 6 27 3
10 2 14 -3 8 -21 -26 -53 -31 -149 -28 -55 2 -111 -1 -125 -6 -19 -8 -11 -10
46 -12 39 -1 76 -1 83 0 6 1 12 -2 12 -7 0 -10 -486 -26 -501 -16 -5 3 -7 15
-4 27 5 16 4 18 -3 8 -8 -11 -10 -11 -14 0 -3 8 -8 11 -12 7 -4 -3 -2 -16 4
-28 10 -19 10 -20 -9 -8 -20 12 -22 47 -6 99 4 11 2 19 -2 19 -5 0 -14 -26
-21 -57z m1216 -190 c31 -16 46 -41 18 -30 -22 8 -37 -13 -25 -35 6 -10 9 -33
7 -50 l-3 -31 -25 39 -25 39 -100 8 c-55 4 -162 6 -237 4 -135 -4 -138 -4
-138 17 -1 21 -1 21 -19 -1 -11 -13 -25 -23 -32 -23 -7 0 0 13 16 30 15 16 32
27 37 24 5 -3 15 0 23 6 34 29 447 31 503 3z m-76 -85 c8 -7 25 -27 36 -45 26
-37 28 -81 11 -252 l-12 -116 -112 -112 -112 -113 -199 0 -199 1 -42 68 c-37
59 -43 77 -44 127 l-2 59 -7 -58 c-4 -32 -11 -61 -15 -65 -4 -4 -5 11 -2 33 4
22 9 100 13 173 4 72 11 132 16 132 4 0 6 -44 4 -97 -5 -90 -4 -93 4 -33 5 36
10 90 10 120 1 53 3 57 58 115 l57 60 225 5 c124 3 241 7 261 8 19 1 42 -4 51
-10z m-2542 -85 c0 -40 -65 -351 -76 -362 -18 -19 -12 30 21 156 47 185 51
221 30 264 l-16 34 21 -24 c14 -16 20 -37 20 -68z m780 65 c12 -13 34 -46 51
-74 l29 -51 -16 -169 c-17 -183 -25 -206 -96 -286 l-33 -36 -217 -7 -218 -6
-27 44 c-16 24 -39 67 -53 95 -27 55 -40 65 -40 30 0 -12 -3 -18 -6 -15 -8 8
27 347 36 347 3 0 4 -42 3 -92 l-1 -93 7 96 c8 101 23 139 76 189 25 24 34 25
228 36 111 6 214 11 229 12 17 1 35 -7 48 -20z m-1003 -40 c-3 -8 -6 -5 -6 6
-1 11 2 17 5 13 3 -3 4 -12 1 -19z m-390 -20 c-3 -7 -5 -2 -5 12 0 14 2 19 5
13 2 -7 2 -19 0 -25z m3292 13 c6 -1 -21 -31 -28 -31 -14 1 -33 19 -28 27 5 8
30 9 56 4z m1262 -148 c32 -31 59 -63 59 -71 0 -11 3 -12 13 -4 27 22 0 -685
-28 -752 -13 -30 -45 -59 -93 -85 -23 -12 -23 -12 -9 11 12 18 16 88 21 334 6
273 4 312 -9 318 -8 3 -15 13 -15 22 0 10 -6 14 -14 11 -7 -3 -19 0 -25 6 -13
13 -15 31 -2 22 5 -3 12 -1 16 5 4 6 19 -3 37 -20 38 -38 47 -32 19 13 -24 39
-42 135 -22 123 6 -4 8 -13 5 -19 -4 -7 -4 -9 1 -5 15 14 65 -32 65 -59 0 -37
8 -24 14 20 4 34 0 40 -50 86 -39 35 -54 57 -54 75 0 14 3 26 6 26 3 0 32 -25
65 -57z m-1314 25 c-3 -8 -6 -5 -6 6 -1 11 2 17 5 13 3 -3 4 -12 1 -19z m70
-130 c-2 -29 -3 -6 -3 52 0 58 1 81 3 53 2 -29 2 -77 0 -105z m-892 88 c4 -27
2 -52 -5 -66 -12 -22 -13 -22 -23 -5 -5 10 -10 31 -9 47 0 15 -4 30 -9 34 -6
4 -4 13 7 25 22 25 32 17 39 -35z m-928 -3 c-3 -10 -5 -2 -5 17 0 19 2 27 5
18 2 -10 2 -26 0 -35z m857 -25 c8 -18 17 -44 20 -58 6 -23 5 -23 -10 4 -11
20 -18 25 -24 16 -4 -7 -13 -9 -19 -6 -6 4 -9 12 -6 17 4 5 -2 9 -11 9 -15 0
-14 4 6 25 13 14 25 25 27 25 2 0 10 -15 17 -32z m-1984 -18 c0 -5 -5 -10 -11
-10 -5 0 -7 5 -4 10 3 6 8 10 11 10 2 0 4 -4 4 -10z m2076 -18 c-17 -16 -18
-16 -5 5 7 12 15 20 18 17 3 -2 -3 -12 -13 -22z m-2276 8 c0 -5 -4 -10 -10
-10 -5 0 -10 5 -10 10 0 6 5 10 10 10 6 0 10 -4 10 -10z m90 -71 c-7 -11 -14
-18 -17 -15 -8 8 5 36 17 36 7 0 7 -6 0 -21z m3625 11 c-3 -5 -13 -10 -21 -10
-8 0 -14 5 -14 10 0 6 9 10 21 10 11 0 17 -4 14 -10z m-181 -6 c14 -5 14 -9 0
-37 -9 -17 -18 -51 -19 -76 -2 -25 -6 -53 -10 -62 -9 -23 13 -99 31 -106 12
-4 12 -8 -3 -19 -10 -7 -14 -14 -10 -14 5 0 1 -10 -7 -22 -18 -26 -21 -74 -5
-83 5 -4 8 -12 6 -18 -2 -7 -1 -19 3 -27 5 -9 1 -24 -10 -37 l-18 -22 -10 42
c-8 28 -8 80 -2 157 5 63 12 158 15 210 9 125 9 126 39 114z m-3644 -34 c0 -5
-8 -10 -17 -10 -15 0 -16 2 -3 10 19 12 20 12 20 0z m148 -58 c-13 -15 -14
-15 -21 28 l-7 35 19 -25 c14 -18 17 -28 9 -38z m3099 -9 c-2 -16 -4 -5 -4 22
0 28 2 40 4 28 2 -13 2 -35 0 -50z m459 52 c6 -15 -11 -45 -26 -45 -14 0 -20
32 -9 46 15 18 28 18 35 -1z m234 -4 c0 -10 -7 -24 -15 -31 -12 -10 -16 -9
-21 4 -3 9 -4 23 0 31 8 21 36 19 36 -4z m-3840 -36 c0 -18 -5 -25 -20 -25
-21 0 -24 8 -14 34 10 25 34 19 34 -9z m202 -17 c-16 -16 -37 4 -28 28 6 16 8
16 23 1 13 -13 15 -19 5 -29z m-52 15 c0 -16 -2 -16 -10 -3 -8 11 -9 4 -6 -25
2 -22 1 -31 -1 -20 -3 11 -12 29 -21 39 -10 11 -11 16 -4 12 6 -4 12 -2 12 3
0 6 7 11 15 11 8 0 15 -8 15 -17z m-253 -11 c7 -4 19 -25 28 -45 9 -21 20 -35
25 -32 5 3 2 -8 -8 -24 -9 -17 -18 -26 -20 -21 -2 6 -11 10 -20 10 -12 0 -13
3 -4 12 21 21 15 75 -10 92 -22 16 -14 23 9 8z m3142 -14 c-18 -34 -180 -198
-196 -198 -28 0 -10 26 84 121 94 96 138 126 112 77z m670 -29 c-5 -10 -14
-19 -20 -19 -16 0 -22 29 -9 45 19 22 43 0 29 -26z m236 11 c0 -27 -22 -39
-31 -16 -8 22 3 49 19 43 6 -2 12 -14 12 -27z m-3847 -26 c-4 -23 -26 -30 -34
-10 -8 20 15 51 29 37 5 -5 7 -17 5 -27z m273 -259 c-9 -54 -10 -50 -6 40 3
55 6 136 7 180 2 59 3 48 5 -40 2 -66 -1 -147 -6 -180z m-484 269 c3 -8 -1
-23 -10 -32 -15 -14 -17 -14 -23 1 -8 21 1 47 16 47 6 0 13 -7 17 -16z m781
-67 c35 -68 38 -81 20 -75 -7 3 -23 -7 -35 -21 -14 -16 -23 -20 -21 -11 3 19
-11 136 -19 156 -3 8 1 14 8 14 8 0 29 -28 47 -63z m-649 9 c-3 -3 -11 5 -18
17 -13 21 -12 21 5 5 10 -10 16 -20 13 -22z m3566 -16 c0 -27 -22 -39 -31 -16
-8 22 3 49 19 43 6 -2 12 -14 12 -27z m238 23 c7 -11 -11 -53 -22 -53 -13 0
-22 27 -15 45 6 16 30 20 37 8z m-3628 -13 c8 -13 -4 -50 -16 -50 -13 0 -22
27 -15 45 6 17 22 20 31 5z m-207 -22 c-4 -29 -38 -38 -38 -10 0 22 8 32 27
32 9 0 13 -8 11 -22z m1864 -38 c2 -6 16 -12 32 -14 34 -4 58 -31 48 -54 -14
-35 -84 -122 -98 -122 -8 0 -14 -7 -14 -15 0 -16 -15 -20 -24 -7 -3 5 -26 10
-51 10 -29 2 -44 -2 -40 -8 3 -5 24 -10 45 -10 36 0 62 -14 41 -22 -21 -8
-111 -133 -111 -155 0 -12 -5 -23 -11 -23 -6 0 -8 -30 -5 -87 16 -263 16 -450
2 -537 -8 -48 -18 -91 -21 -94 -16 -16 -25 29 -20 93 l6 70 -181 0 -182 0 5
-40 c5 -33 4 -37 -6 -20 -6 11 -17 69 -24 128 l-13 108 27 24 c36 32 57 28 61
-12 2 -22 8 -32 20 -32 9 1 49 -2 87 -6 42 -4 81 -3 97 4 l27 10 -5 101 c-5
105 -1 128 19 112 22 -17 57 -21 57 -6 0 7 6 11 14 8 19 -7 12 64 -11 119 -13
30 -21 37 -45 37 -36 0 -45 21 -25 63 18 37 57 135 57 142 0 10 -182 4 -202
-6 -24 -13 -46 2 -26 19 16 13 223 23 235 11 4 -4 15 -4 23 1 27 17 -15 22
-136 18 -115 -3 -116 -3 -137 -33 -27 -36 -77 -152 -77 -177 0 -12 -8 -18 -22
-18 -37 0 -47 -13 -57 -70 l-9 -55 -2 55 c-1 30 -4 73 -5 95 -4 49 5 126 14
121 3 -2 6 8 7 23 1 31 53 151 65 151 4 0 16 16 25 35 9 20 19 33 22 30 3 -2
11 0 19 7 9 7 79 13 196 16 100 2 186 8 192 13 13 13 113 11 117 -1z m1846
-26 c-4 -25 -32 -24 -36 0 -4 21 18 40 31 27 5 -5 7 -17 5 -27z m237 6 c0 -13
-6 -25 -12 -27 -16 -6 -27 21 -19 43 9 23 31 11 31 -16z m-3847 -16 c-4 -23
-26 -30 -34 -10 -8 20 15 51 29 37 5 -5 7 -17 5 -27z m1863 19 c13 -16 12 -17
-3 -4 -10 7 -18 15 -18 17 0 8 8 3 21 -13z m-2076 -19 c0 -10 -8 -20 -17 -22
-18 -3 -26 27 -11 42 12 11 28 0 28 -20z m2937 -17 c10 -11 18 -28 18 -38 0
-27 -47 -21 -70 8 -17 21 -25 23 -129 23 -65 0 -111 -4 -111 -10 0 -6 42 -8
110 -5 l110 4 27 -47 c14 -26 53 -87 86 -136 l60 -90 -8 -125 c-7 -138 -16
-167 -69 -225 l-35 -39 -168 7 c-364 16 -358 15 -380 29 -21 13 -15 24 12 22
14 -2 23 1 19 6 -3 5 -1 9 5 9 19 0 41 32 41 61 0 18 4 28 10 24 11 -7 9 23
-2 41 -5 7 1 9 18 6 19 -3 22 -7 12 -13 -11 -8 -6 -13 12 -11 3 0 4 -15 2 -34
-3 -24 1 -41 13 -54 23 -25 40 -25 66 1 17 17 20 29 16 68 -4 47 -4 48 24 47
19 -1 27 -5 24 -13 -2 -7 0 -13 5 -13 5 0 7 -12 4 -27 -6 -34 15 -77 39 -81
21 -4 57 24 57 44 0 26 20 24 31 -3 37 -99 119 -95 119 7 0 42 -5 54 -34 85
-24 25 -36 48 -38 72 -2 23 -11 41 -24 50 -18 12 -24 11 -46 -6 -14 -11 -28
-18 -30 -15 -3 2 -11 -9 -18 -25 -7 -17 -19 -36 -28 -43 -13 -11 -14 -10 -8
15 9 36 -18 86 -46 87 -20 0 -48 -43 -48 -73 0 -28 -3 -32 -28 -32 -25 -1 -27
2 -24 26 6 37 -14 69 -42 69 -19 0 -23 4 -19 20 3 11 15 26 27 32 11 6 18 7
14 3 -10 -11 22 -34 48 -35 27 0 44 20 54 62 4 18 9 40 11 48 2 8 13 19 24 25
11 6 26 23 35 38 13 24 13 30 0 55 -32 56 -90 34 -90 -34 0 -25 -4 -32 -17
-29 -10 2 -21 4 -25 4 -5 1 -8 13 -8 27 0 38 -18 64 -44 64 -29 0 -46 -20 -55
-62 -5 -25 -13 -34 -37 -40 -17 -4 -38 -16 -47 -26 -22 -25 -30 -82 -14 -112
13 -26 75 -73 86 -66 4 3 5 -10 3 -28 -3 -23 -9 -32 -24 -33 -27 -2 -68 -30
-68 -46 0 -7 -7 -22 -16 -33 -14 -17 -15 -1 -9 181 6 189 8 202 32 242 14 24
30 46 36 50 7 4 48 10 92 14 l80 7 -78 -2 c-42 0 -77 1 -77 4 0 3 12 13 28 22
23 15 58 17 257 16 218 0 231 -1 247 -21z m-1607 7 c-16 -2 -49 -7 -72 -10
l-42 -5 31 -52 c28 -48 30 -59 28 -132 -1 -44 -6 -98 -10 -120 -7 -29 -8 -13
-5 64 3 104 3 105 -33 174 l-37 70 -200 -6 c-169 -5 -197 -4 -182 8 14 10 77
13 285 13 147 -1 254 -2 237 -4z m-1068 -34 c-8 -22 -8 -38 0 -59 9 -24 7 -31
-8 -45 -18 -15 -19 -14 -19 13 0 16 -6 34 -14 40 -8 7 -13 17 -12 24 4 24 31
57 48 57 14 0 15 -4 5 -30z m-274 -8 c22 4 26 1 30 -26 3 -17 8 -42 12 -56 5
-18 1 -33 -14 -50 l-21 -25 16 33 c28 59 -14 114 -58 76 -20 -18 -21 -18 -15
-1 4 10 7 31 7 45 0 20 3 23 9 13 5 -8 19 -12 34 -9z m1257 -166 c0 -39 -7
-130 -14 -203 -12 -111 -18 -137 -41 -171 -18 -27 -36 -42 -57 -46 -17 -3
-133 -6 -259 -6 l-228 0 -21 27 c-11 15 -19 32 -16 39 3 7 0 14 -5 16 -18 6
-28 80 -22 167 5 81 9 91 58 176 29 50 68 108 87 129 l35 40 199 4 c109 2 203
5 209 6 5 1 24 -22 42 -52 29 -48 33 -63 33 -126z m-1142 138 c-4 -23 -26 -30
-34 -10 -8 20 15 51 29 37 5 -5 7 -17 5 -27z m210 8 c3 -17 -2 -22 -17 -22
-14 0 -21 6 -21 18 0 38 33 41 38 4z m3392 3 c0 -18 -5 -25 -20 -25 -20 0 -28
28 -13 43 15 16 33 6 33 -18z m236 10 c4 -8 0 -22 -7 -31 -11 -13 -14 -13 -27
0 -17 17 -9 46 13 46 9 0 18 -7 21 -15z m-940 -131 c26 -41 44 -77 41 -80 -3
-3 -13 7 -23 23 -10 15 -37 58 -61 94 -24 37 -43 71 -43 75 1 14 36 -32 86
-112z m950 60 c-11 -8 -27 -14 -35 -13 -11 0 -9 3 5 9 12 5 25 14 29 20 4 6
10 8 13 5 4 -4 -2 -13 -12 -21z m-3961 -14 c0 -27 -22 -39 -31 -16 -8 22 3 49
19 43 6 -2 12 -14 12 -27z m215 6 c0 -14 -4 -27 -9 -30 -13 -9 -32 19 -25 38
10 25 34 19 34 -8z m2308 0 c2 -9 -2 -24 -9 -32 -12 -14 -14 -14 -26 1 -9 13
-9 23 -2 37 12 22 32 19 37 -6z m150 -4 c2 -13 -3 -25 -13 -28 -23 -9 -38 10
-30 36 9 27 39 22 43 -8z m1147 -2 c0 -27 -22 -39 -31 -16 -8 22 3 49 19 43 6
-2 12 -14 12 -27z m80 20 c3 -5 1 -10 -4 -10 -6 0 -11 5 -11 10 0 6 2 10 4 10
3 0 8 -4 11 -10z m160 -20 c0 -13 -6 -25 -12 -27 -16 -6 -27 21 -19 43 9 23
31 11 31 -16z m-3792 -47 c-13 -20 -15 -31 -6 -54 8 -21 8 -27 0 -22 -6 4 -8
0 -5 -9 4 -8 2 -21 -3 -29 -6 -11 -9 -8 -9 9 0 13 -5 33 -12 45 -17 32 -17 56
1 70 12 10 14 9 7 -3 -4 -8 1 -5 11 6 24 29 37 19 16 -13z m3630 9 c-10 -10
-20 -17 -22 -16 -6 5 20 34 30 34 5 0 1 -8 -8 -18z m62 8 c3 -6 -1 -7 -9 -4
-18 7 -21 14 -7 14 6 0 13 -4 16 -10z m-3851 -37 c4 -9 0 -23 -8 -32 -14 -13
-16 -13 -22 2 -7 20 1 47 15 47 5 0 12 -8 15 -17z m213 1 c3 -8 -1 -23 -10
-32 -15 -14 -17 -14 -23 1 -8 21 1 47 16 47 6 0 13 -7 17 -16z m3708 -2 c-3
-3 -11 0 -18 7 -9 10 -8 11 6 5 10 -3 15 -9 12 -12z m-1524 -10 c-7 -2 -18 1
-23 6 -8 8 -4 9 13 5 13 -4 18 -8 10 -11z m1203 2 c7 -19 -1 -34 -19 -34 -8 0
-16 4 -19 9 -9 14 4 41 19 41 7 0 16 -7 19 -16z m231 -10 c0 -10 -8 -20 -17
-22 -18 -3 -26 27 -11 42 12 11 28 0 28 -20z m-1497 -51 c-3 -30 -25 -42 -34
-19 -9 22 2 46 21 46 12 0 15 -8 13 -27z m148 12 c4 -8 0 -22 -7 -31 -10 -13
-14 -13 -26 -1 -16 16 -7 47 13 47 8 0 17 -7 20 -15z m-2591 -20 c0 -11 -8
-21 -17 -23 -14 -3 -18 3 -18 23 0 20 4 26 18 23 9 -2 17 -12 17 -23z m213 -3
c2 -14 -2 -22 -12 -22 -19 0 -29 17 -22 36 8 22 30 12 34 -14z m1392 3 c0 5 7
-1 16 -14 l17 -24 18 24 c16 21 16 17 -3 -31 l-21 -55 -46 2 c-26 1 -49 -3
-53 -10 -14 -21 -9 16 8 66 9 26 20 47 25 47 13 0 11 -14 -3 -30 -11 -12 -10
-12 5 -1 9 7 17 21 17 30 0 14 2 14 10 1 5 -8 10 -11 10 -5z m2218 -18 c-2
-11 -9 -22 -15 -25 -16 -4 -27 22 -19 43 8 22 38 6 34 -18z m240 1 c-5 -34
-38 -37 -38 -4 0 20 5 26 21 26 15 0 20 -5 17 -22z m-3571 -30 c-3 -7 -5 -2
-5 12 0 14 2 19 5 13 2 -7 2 -19 0 -25z m2559 -272 c-14 -22 -39 -56 -56 -74
l-31 -32 20 -26 c12 -15 21 -36 21 -46 0 -20 0 -20 -17 0 -17 20 -29 21 -323
24 -168 1 -311 -1 -317 -5 -7 -5 -13 -4 -13 0 0 15 23 33 42 33 10 0 18 7 18
15 0 20 33 21 355 9 l200 -7 12 25 c6 13 29 45 51 70 l39 46 9 139 9 138 3
-134 c2 -126 1 -135 -22 -175z m-3034 239 c4 -20 3 -23 -8 -14 -16 13 -19 39
-5 39 5 0 11 -11 13 -25z m93 0 c0 -11 -8 -21 -17 -23 -14 -3 -18 3 -18 23 0
20 4 26 18 23 9 -2 17 -12 17 -23z m210 -1 c0 -10 -8 -20 -17 -22 -18 -3 -26
27 -11 42 12 11 28 0 28 -20z m3385 -19 c0 -25 -23 -35 -35 -15 -10 16 2 40
20 40 9 0 15 -9 15 -25z m236 10 c7 -18 -14 -47 -27 -39 -5 3 -9 16 -9 30 0
27 27 34 36 9z m-3591 -62 c0 -46 -1 -47 -17 -30 -22 21 -22 32 -1 57 10 11
18 20 18 20 0 0 0 -21 0 -47z m2160 16 c0 -15 -7 -25 -17 -27 -13 -3 -18 3
-18 21 0 13 3 27 7 31 13 12 28 -1 28 -25z m152 14 c4 -9 1 -19 -5 -21 -7 -2
-10 -8 -6 -13 3 -5 -2 -9 -11 -9 -18 0 -30 24 -21 45 7 20 35 19 43 -2z m151
-7 c-1 -14 -5 -23 -9 -20 -4 2 -9 -2 -12 -8 -3 -9 -7 -7 -12 5 -9 23 1 47 20
47 10 0 14 -8 13 -24z m-2813 -16 c0 -27 -22 -39 -31 -16 -8 22 3 49 19 43 6
-2 12 -14 12 -27z m218 8 c6 -19 -3 -38 -18 -38 -7 0 -15 6 -18 13 -6 18 3 37
18 37 7 0 15 -6 18 -12z m3601 -16 c2 -4 -1 -18 -8 -30 -11 -21 -14 -22 -25
-8 -11 13 -11 19 -1 31 14 16 26 19 34 7z m244 -25 c-2 -11 -9 -22 -15 -25
-16 -4 -27 22 -19 43 8 22 38 6 34 -18z m-4023 -25 c-5 -14 -8 -14 -15 -2 -5
8 -4 22 3 34 10 19 11 20 15 3 2 -10 1 -26 -3 -35z m1275 -57 c0 -78 -3 -95
-15 -95 -10 0 -15 11 -16 38 -1 20 0 42 1 47 1 6 4 26 7 45 13 94 23 78 23
-35z m-1043 60 c-7 -13 -14 -20 -15 -14 -2 5 2 16 8 24 18 21 20 18 7 -10z
m-517 -9 c0 -8 3 -23 6 -33 5 -12 4 -15 -3 -8 -16 15 -26 55 -14 55 6 0 11 -6
11 -14z m358 -18 c-2 -13 -10 -23 -18 -23 -8 0 -16 10 -18 23 -3 17 2 22 18
22 16 0 21 -5 18 -22z m210 -6 c2 -14 -2 -22 -12 -22 -19 0 -29 17 -22 36 8
22 30 12 34 -14z m-467 -54 c11 -40 25 -83 30 -96 7 -17 6 -23 -3 -20 -12 4
-68 149 -68 176 0 6 4 12 10 12 5 0 19 -32 31 -72z m2114 -60 c0 -58 -3 -101
-7 -95 -5 8 -8 6 -8 -5 0 -27 -22 -68 -36 -68 -18 0 -21 78 -7 176 14 96 18
106 41 102 15 -3 17 -19 17 -110z m463 71 c-1 -13 -10 -24 -18 -24 -19 0 -26
45 -8 56 18 11 30 -4 26 -32z m1272 16 c0 -25 -23 -35 -35 -15 -10 16 2 40 20
40 9 0 15 -9 15 -25z m235 -5 c0 -27 -22 -39 -31 -16 -8 22 3 49 19 43 6 -2
12 -14 12 -27z m-1359 5 c4 -8 0 -22 -7 -31 -11 -13 -14 -13 -27 0 -17 17 -9
46 13 46 9 0 18 -7 21 -15z m154 -8 c0 -16 -6 -23 -20 -24 -20 -2 -28 25 -13
40 14 15 33 6 33 -16z m150 -2 c0 -18 -5 -25 -20 -25 -15 0 -20 7 -20 25 0 18
5 25 20 25 15 0 20 -7 20 -25z m-2875 -20 c0 -28 -29 -25 -33 3 -3 19 0 23 15
20 10 -2 18 -12 18 -23z m359 -55 c4 -47 3 -56 -3 -31 -5 19 -20 42 -33 52
-23 18 -23 18 -3 37 11 11 23 17 26 13 4 -3 10 -35 13 -71z m-144 45 c0 -25
-23 -35 -35 -15 -10 16 2 40 20 40 9 0 15 -9 15 -25z m3597 -21 c2 -5 -3 -19
-11 -29 -14 -19 -15 -19 -21 -2 -4 9 -4 24 -1 33 6 16 27 15 33 -2z m139 -13
c-4 -6 -14 -7 -23 -4 -15 6 -14 7 3 13 22 9 29 6 20 -9z m104 -5 c0 -31 -14
-40 -30 -21 -15 18 -6 45 15 45 9 0 15 -9 15 -24z m-2812 -51 c-7 -21 -18 -40
-25 -42 -7 -3 -4 11 8 36 10 22 20 48 20 58 1 14 2 15 6 2 2 -8 -2 -33 -9 -54z
m-1130 17 c2 -14 -2 -22 -12 -22 -19 0 -29 17 -22 36 8 22 30 12 34 -14z m117
18 c-3 -5 -1 -10 5 -10 6 0 8 -5 5 -10 -4 -6 0 -22 9 -35 13 -19 23 -24 56
-22 48 3 55 -9 27 -53 -19 -30 -21 -31 -34 -14 -12 16 -10 20 9 30 18 10 6 12
-77 13 -54 1 -100 3 -102 5 -2 2 19 27 48 55 49 49 67 63 54 41z m98 -12 c6
-19 -3 -38 -18 -38 -18 0 -28 17 -21 35 7 18 33 20 39 3z m843 -31 c13 -11 24
-29 24 -40 0 -17 -5 -18 -42 -13 -24 3 -170 9 -325 12 -156 4 -283 10 -283 15
0 4 4 18 9 31 l9 23 292 -3 c279 -4 293 -5 316 -25z m399 -6 c-6 -5 -25 10
-25 20 0 5 6 4 14 -3 8 -7 12 -15 11 -17z m2272 15 c0 -15 -45 -32 -55 -21 -3
3 2 5 10 5 9 0 21 7 28 15 15 19 17 19 17 1z m-3803 -23 c3 -10 9 -24 12 -30
3 -8 -1 -13 -10 -13 -9 0 -16 3 -16 8 0 4 -3 17 -6 30 -7 26 11 30 20 5z
m3661 -8 c0 -11 -8 -21 -17 -23 -14 -3 -18 3 -18 23 0 20 4 26 18 23 9 -2 17
-12 17 -23z m240 4 c9 -28 -14 -44 -34 -24 -12 11 -12 17 -1 29 17 22 27 20
35 -5z m-85 -34 c7 -20 23 -41 38 -50 25 -13 21 -14 -68 -14 -108 -1 -170 7
-170 21 0 6 14 8 30 6 25 -4 35 1 55 28 22 29 36 35 92 43 6 0 17 -15 23 -34z
m-3902 -32 c2 -1 -1 -10 -7 -20 -6 -10 -11 -12 -11 -5 0 6 -6 12 -13 12 -22 0
-48 35 -41 54 6 15 10 14 38 -11 17 -15 32 -29 34 -30z m3572 -10 c26 -48 19
-71 -10 -33 -23 30 -46 111 -26 89 7 -8 24 -33 36 -56z m-1250 17 c8 -5 11
-10 5 -10 -5 0 -17 5 -25 10 -8 5 -10 10 -5 10 6 0 17 -5 25 -10z m-2143 -10
c93 0 134 -3 131 -11 -5 -14 -275 -18 -289 -4 -14 14 -11 28 7 21 9 -3 76 -6
151 -6z m418 -71 c7 -67 -9 -36 -19 36 -4 34 -3 45 3 34 5 -8 12 -40 16 -70z
m3094 55 c2 -2 2 -7 -2 -10 -8 -9 -47 6 -47 17 0 9 37 3 49 -7z m913 4 c-6 -7
-25 -22 -44 -32 -39 -23 -32 -13 14 20 38 26 45 29 30 12z m-3252 -9 c0 8 2
12 5 9 6 -6 35 -171 31 -175 -1 -2 -15 7 -29 20 -25 20 -27 29 -27 92 0 49 3
65 10 55 8 -12 10 -12 10 -1z m3285 -17 c-53 -42 -60 -46 -33 -19 16 15 31 27
35 27 4 0 3 -3 -2 -8z m-348 -34 c-3 -7 -5 -2 -5 12 0 14 2 19 5 13 2 -7 2
-19 0 -25z m-252 -71 l0 -93 -42 30 c-24 16 -43 33 -43 37 0 4 -26 21 -57 38
-53 29 -63 31 -160 31 -57 0 -103 3 -103 8 1 34 26 38 245 40 l160 2 0 -93z
m-405 73 c0 -5 -7 -10 -15 -10 -8 0 -15 5 -15 10 0 6 7 10 15 10 8 0 15 -4 15
-10z m670 -70 c-6 -11 -36 -46 -66 -77 -59 -61 -48 -41 25 45 47 55 58 64 41
32z m-70 -11 c-7 -11 -14 -19 -16 -16 -7 7 7 37 17 37 6 0 5 -9 -1 -21z
m-3615 -54 c4 -33 3 -43 -3 -30 -14 31 -23 100 -12 89 6 -6 12 -32 15 -59z
m2452 49 c-3 -3 -12 -4 -19 -1 -8 3 -5 6 6 6 11 1 17 -2 13 -5z m-1096 -187
c-10 -9 -11 -8 -5 6 3 10 9 15 12 12 3 -3 0 -11 -7 -18z m-2493 -816 c13 -1
21 -5 18 -10 -4 -5 -6 -173 -6 -374 l0 -364 -126 -126 -125 -127 -179 0 c-99
0 -180 3 -180 6 0 3 58 64 129 134 71 71 127 131 123 134 -3 3 0 6 7 6 7 0 34
21 59 48 l47 47 0 312 -1 312 36 3 c30 3 113 2 198 -1z m795 -436 l437 -439 0
-63 0 -63 -560 0 -560 0 0 125 0 125 28 1 c15 0 154 1 310 1 l283 0 -18 21
c-10 12 -80 84 -155 159 -76 76 -138 143 -138 148 0 6 -4 10 -9 10 -6 0 -75
64 -155 142 l-146 142 0 61 c0 34 2 64 4 66 2 2 58 4 123 3 l118 0 438 -439z
m437 436 c3 -1 4 -57 2 -126 l-3 -125 -246 0 -246 0 -124 123 c-119 117 -123
122 -97 127 21 4 686 4 714 1z m782 -435 l438 -440 0 -63 0 -63 -122 0 -122 0
-248 250 c-136 137 -248 254 -248 260 0 5 -5 10 -10 10 -6 0 -91 79 -190 177
l-178 176 -4 66 -3 66 124 0 124 0 439 -439z m501 -1 l437 -438 0 -63 0 -64
-122 0 -123 0 -282 286 c-156 157 -283 290 -283 295 0 5 -6 9 -13 9 -8 0 -20
11 -27 25 -7 14 -17 25 -22 25 -5 0 -62 53 -127 118 l-120 117 -3 65 -4 65
127 -1 126 -1 436 -438z m970 250 l188 -189 188 0 187 0 1 -123 0 -123 -186 0
-187 0 -64 -65 -64 -65 253 0 253 0 59 -62 59 -61 0 -64 0 -63 -560 0 -560 0
0 64 c0 55 3 67 25 87 13 13 25 30 25 37 0 6 6 12 13 12 16 0 69 54 62 63 -3
4 -2 5 1 3 7 -5 79 64 79 75 0 5 14 18 30 31 56 42 135 124 135 140 0 9 -9 18
-20 21 -11 3 -20 13 -20 22 0 9 -4 13 -10 10 -5 -3 -10 1 -10 9 0 9 -4 16 -9
16 -5 0 -74 64 -155 142 l-146 142 0 65 0 66 122 -1 123 0 188 -189z m672 186
c18 -1 20 -7 17 -63 -3 -62 -4 -64 -65 -125 l-61 -63 -185 0 -184 0 -127 125
c-70 68 -123 126 -118 127 7 3 666 1 723 -1z m357 0 c4 -1 7 -226 7 -501 l0
-500 -124 0 -125 0 0 499 0 500 23 3 c18 2 193 2 219 -1z m876 -63 l3 -64
-158 -154 c-87 -85 -161 -154 -165 -153 -4 2 -10 -6 -13 -17 -4 -11 -10 -20
-15 -20 -4 0 -11 -7 -14 -16 -4 -12 46 -68 179 -202 l185 -186 0 -63 0 -63
-123 0 -123 0 -247 251 c-271 275 -260 257 -194 309 15 12 24 27 20 33 -3 7
-3 9 2 5 9 -9 105 85 105 103 0 7 3 9 7 6 9 -9 34 13 27 24 -3 5 -2 8 3 7 12
-4 123 106 123 120 0 7 3 11 8 10 9 -4 52 39 52 52 0 5 10 15 22 21 26 14 52
39 54 51 1 4 2 9 3 11 0 1 58 1 128 1 l128 -1 3 -65z m-5028 -393 l245 -245
-253 0 -252 0 0 245 c0 135 3 245 8 245 4 0 117 -110 252 -245z m1220 -297 l0
-248 -125 0 -125 0 0 376 0 377 125 -129 125 -128 0 -248z m-784 437 c20 -10
59 -15 121 -15 l91 0 7 -29 c6 -26 11 -30 53 -35 26 -4 75 0 110 7 46 10 65
11 68 3 26 -73 34 -103 34 -127 l0 -29 -102 35 c-167 57 -156 55 -161 34 -9
-32 4 -59 27 -59 17 0 18 2 6 10 -22 14 -11 12 50 -9 30 -11 83 -25 118 -32
l62 -13 -1 -141 c0 -77 -3 -133 -6 -125 -3 8 -107 117 -232 241 -275 275 -298
299 -284 299 6 0 24 -7 39 -15z m-1288 -434 c2 -1 -54 -57 -125 -126 l-128
-125 -182 0 -183 0 0 63 c0 54 4 66 28 92 15 16 27 34 27 40 0 5 6 10 13 10 7
0 21 10 30 22 9 11 26 23 36 25 17 2 475 2 484 -1z m2628 -261 c32 -30 52 -40
76 -40 18 0 51 -7 73 -15 22 -8 74 -14 116 -15 63 0 81 4 104 21 21 17 26 28
23 50 -4 27 -3 29 33 29 28 0 48 -9 79 -35 29 -24 52 -35 75 -35 18 0 49 -7
68 -15 62 -26 237 -15 237 14 0 3 27 4 60 3 55 -3 60 -6 60 -27 0 -19 7 -23
42 -28 64 -9 712 5 725 15 18 14 24 -6 14 -53 -29 -146 -29 -145 -94 -201 -34
-28 -68 -59 -75 -67 -13 -17 -149 -26 -454 -33 -93 -1 -168 -6 -168 -10 0 -19
13 -39 20 -29 9 16 554 28 564 13 4 -7 -9 -13 -36 -16 -75 -9 -349 -22 -440
-22 -49 1 -88 0 -88 -1 0 -1 16 -39 35 -85 35 -81 71 -128 101 -128 8 0 14 -6
14 -14 0 -25 69 -188 105 -249 41 -69 42 -75 13 -82 -88 -20 -117 -25 -148
-25 -20 0 -44 -6 -55 -13 -11 -8 -51 -30 -88 -51 -37 -20 -84 -46 -103 -57
-20 -11 -60 -26 -90 -34 -70 -18 -143 -76 -148 -117 -1 -4 -8 -13 -16 -20 -12
-11 -12 -10 0 7 12 17 12 18 0 8 -7 -7 -15 -23 -17 -35 -2 -13 -5 -28 -7 -34
-2 -6 -54 -32 -114 -58 -60 -26 -119 -58 -131 -72 -22 -26 -87 -34 -108 -13
-6 6 -41 12 -79 14 -63 4 -72 1 -133 -32 -42 -24 -66 -33 -69 -25 -2 7 -14 12
-27 12 -16 0 -26 7 -31 23 -3 12 -12 29 -20 37 -11 13 -8 22 23 60 71 90 175
255 180 287 3 18 1 39 -5 45 -7 9 -7 29 -1 63 11 55 5 117 -17 182 -14 41 -14
43 16 84 54 75 55 66 -134 613 l-66 190 27 28 c15 15 29 28 31 28 3 0 24 -18
48 -40z m-956 -305 c11 7 40 -5 40 -17 0 -18 -94 2 -167 37 -51 24 -73 40 -73
53 0 16 14 11 96 -30 53 -26 100 -45 104 -43z m-150 8 c0 -20 -24 -11 -28 10
-2 12 1 15 12 11 9 -3 16 -13 16 -21z m60 -39 c0 -2 -9 0 -20 6 -11 6 -20 13
-20 16 0 2 9 0 20 -6 11 -6 20 -13 20 -16z m175 6 c-3 -5 -13 -10 -21 -10 -8
0 -14 5 -14 10 0 6 9 10 21 10 11 0 17 -4 14 -10z m-35 -46 l35 -14 -35 6
c-19 4 -44 10 -55 15 l-20 8 20 0 c11 0 36 -7 55 -15z m2610 -18 c0 -2 -8 -10
-17 -17 -16 -13 -17 -12 -4 4 13 16 21 21 21 13z m-53 -31 c0 -8 -4 -12 -9 -9
-5 3 -6 10 -3 15 9 13 12 11 12 -6z m-27 -30 c0 -8 -7 -15 -15 -15 -26 0 -18
20 13 29 1 1 2 -6 2 -14z m20 -50 c0 -8 -2 -15 -4 -15 -2 0 -6 7 -10 15 -3 8
-1 15 4 15 6 0 10 -7 10 -15z m386 -237 c5 -10 4 -10 -5 -2 -14 13 -31 77 -30
114 0 14 7 -3 14 -37 8 -35 17 -68 21 -75z m-2686 -230 c0 -4 -7 -8 -15 -8 -8
0 -15 4 -15 8 0 5 7 9 15 9 8 0 15 -4 15 -9z m2282 -643 c1 -44 2 -45 5 -12 4
40 23 52 23 15 1 -41 91 -168 120 -168 9 0 24 -7 31 -17 8 -9 28 -25 44 -35
l30 -20 -114 5 c-75 2 -116 8 -119 15 -2 7 -11 21 -21 33 l-18 22 0 -31 c0
-41 -3 -44 -63 -50 -35 -3 -50 -1 -50 8 0 6 9 14 20 17 11 3 20 9 20 14 0 6
17 26 38 47 l37 37 -1 98 c-1 100 14 119 18 22z m-924 -37 c-8 -12 -20 -24
-26 -26 -19 -6 -14 26 6 37 28 17 35 13 20 -11z m57 -20 c-21 -17 -65 -25 -65
-13 0 3 12 16 27 29 21 18 31 21 44 13 16 -10 15 -12 -6 -29z m178 -8 c6 0 -2
-13 -18 -30 -22 -23 -32 -27 -42 -19 -7 6 -13 15 -13 20 0 16 33 40 47 35 8
-3 20 -6 26 -6z m44 -34 c-5 -16 -54 -42 -63 -33 -11 11 36 56 52 50 8 -3 13
-11 11 -17z m-171 -47 c8 -13 -66 -80 -79 -72 -4 2 -5 14 -1 26 6 19 5 20 -10
8 -20 -17 -21 -2 -1 25 8 11 14 14 15 6 0 -10 6 -9 28 2 33 19 39 19 48 5z
m-6 -54 c-13 -14 -26 -22 -29 -19 -3 3 5 14 18 25 33 27 39 24 11 -6z m-121
-41 c10 -22 9 -44 -4 -85 -8 -25 -25 -25 -25 0 0 33 -11 51 -31 51 -22 0 -34
22 -25 45 9 25 72 16 85 -11z m338 -6 c-3 -8 -6 -5 -6 6 -1 11 2 17 5 13 3 -3
4 -12 1 -19z m-278 -24 c6 4 11 3 11 -2 0 -6 -7 -12 -15 -16 -8 -3 -15 -4 -15
-2 0 3 -3 13 -6 23 -4 14 -4 15 4 4 5 -7 15 -10 21 -7z m117 -19 c-9 -14 -25
-25 -36 -25 -11 0 -26 -12 -34 -29 -15 -27 -56 -49 -56 -30 0 20 33 59 49 59
9 0 32 13 51 29 40 34 50 32 26 -4z m728 14 c-3 -5 -22 -9 -42 -9 -20 0 -52
-4 -70 -9 -33 -10 -42 -2 -19 17 23 19 143 20 131 1z m-650 -5 c8 -21 -1 -33
-32 -45 -35 -14 -50 3 -32 36 15 28 54 34 64 9z m-218 -62 c-29 -30 -36 -28
-29 9 4 21 9 25 30 21 l25 -5 -26 -25z m99 -16 c-16 -12 -17 -16 -6 -30 9 -11
10 -16 2 -16 -15 0 -25 26 -17 45 3 8 13 15 23 15 15 0 15 -1 -2 -14z m888
-52 l-6 -47 54 7 c100 11 223 10 227 -2 2 -7 -11 -30 -28 -52 l-32 -41 -112 3
-111 3 -3 74 c-3 70 1 101 12 101 3 0 3 -21 -1 -46z m-2044 12 c-2 -2 -15 -9
-29 -16 -23 -12 -24 -12 -11 3 7 10 20 17 29 17 8 0 13 -2 11 -4z m971 -16 c0
-5 -5 -10 -11 -10 -5 0 -7 5 -4 10 3 6 8 10 11 10 2 0 4 -4 4 -10z m53 -15
c-3 -9 -8 -14 -10 -11 -3 3 -2 9 2 15 9 16 15 13 8 -4z m74 -23 c9 -6 7 -13
-9 -26 -20 -18 -21 -18 -16 2 3 12 1 23 -6 26 -6 2 -5 5 4 5 8 0 21 -3 27 -7z
m-1244 -9 c-7 -2 -19 -2 -25 0 -7 3 -2 5 12 5 14 0 19 -2 13 -5z m1187 -13 c0
-11 -4 -20 -9 -20 -5 0 -7 9 -4 20 3 11 7 20 9 20 2 0 4 -9 4 -20z m1291 -33
c-11 -18 -29 -42 -41 -52 -11 -10 -20 -24 -20 -32 0 -16 -14 -17 -41 -3 -30
17 -168 18 -181 2 -8 -8 -14 -10 -21 -3 -7 7 -6 15 2 25 11 13 31 14 119 9
l107 -6 43 44 c23 24 42 48 42 53 0 5 3 7 6 3 4 -3 -3 -21 -15 -40z m-1335
-25 c-11 -10 -14 3 -8 33 l7 30 3 -28 c2 -16 1 -31 -2 -35z m-1258 26 c20 -20
14 -37 -18 -53 -36 -18 -40 -19 -40 -1 0 16 -43 30 -48 16 -4 -12 -32 -13 -32
-2 0 14 74 52 101 52 14 0 30 -5 37 -12z m1496 -20 c4 -16 -2 -30 -19 -47
l-24 -24 -6 25 c-8 30 9 68 29 68 8 0 16 -10 20 -22z m-156 -10 c18 -18 15
-28 -10 -29 -21 -1 -20 -2 5 -11 15 -5 27 -14 27 -20 0 -6 -11 -7 -27 -3 -35
8 -40 13 -48 48 -6 24 -4 27 17 27 13 0 29 -5 36 -12z m1482 -7 l65 -6 0 -33
c0 -26 -5 -34 -22 -38 -18 -5 -21 -10 -13 -24 7 -13 7 -21 0 -25 -5 -3 -10
-19 -10 -35 0 -16 -5 -32 -11 -35 -7 -5 -2 -16 12 -31 12 -13 20 -26 17 -30
-4 -3 16 -103 22 -109 2 -2 -218 7 -233 9 -12 3 -35 5 -51 5 -24 1 -27 4 -22
24 9 36 -19 153 -35 149 -9 -2 -7 4 5 17 22 24 34 45 72 119 l26 52 57 -1 c31
-1 85 -4 121 -8z m-3316 -75 c18 -6 18 -8 4 -22 -13 -14 -22 -14 -52 -4 -40
13 -50 24 -42 45 4 12 10 12 38 1 18 -7 42 -16 52 -20z m1657 1 c-10 -9 -11
-8 -5 6 3 10 9 15 12 12 3 -3 0 -11 -7 -18z m1311 4 c18 -1 33 -39 44 -109 l7
-43 -29 7 c-38 9 -52 21 -56 47 -2 18 -10 22 -43 22 -32 0 -40 -4 -39 -18 2
-15 -40 -37 -51 -26 -1 2 -6 28 -9 58 -7 71 3 79 92 69 37 -4 75 -7 84 -7z
m-1050 -66 c3 -29 1 -35 -14 -35 -13 0 -18 8 -18 25 0 14 5 25 11 25 5 0 7 5
4 10 -3 6 -2 10 3 10 6 0 12 -16 14 -35z m-192 -39 c0 -3 -4 -8 -10 -11 -5 -3
-10 -1 -10 4 0 6 5 11 10 11 6 0 10 -2 10 -4z m205 -26 c3 -6 -1 -7 -9 -4 -11
4 -16 0 -16 -12 0 -9 -3 -15 -6 -11 -9 8 3 37 15 37 5 0 13 -4 16 -10z m-40
-90 c6 -24 -18 -55 -35 -45 -12 7 -20 65 -14 92 l7 26 18 -24 c10 -13 21 -35
24 -49z m-135 -105 c-1 -5 -9 -8 -18 -7 -13 3 -14 1 -3 -12 11 -13 11 -16 -2
-16 -23 0 -31 18 -16 36 13 16 41 15 39 -1z m250 -60 c8 -9 9 -15 2 -15 -6 0
-13 4 -17 10 -3 5 -13 6 -22 3 -11 -4 -14 -3 -9 5 10 16 31 15 46 -3z"/>
<path d="M4775 6726 c-37 -37 -28 -106 14 -106 11 0 18 -6 17 -12 -2 -7 -6
-30 -11 -51 -4 -23 -3 -48 3 -62 9 -20 8 -22 -9 -18 -24 7 -55 -20 -64 -54 -6
-26 5 -49 44 -91 12 -12 19 -27 16 -33 -11 -17 4 -58 25 -69 25 -14 56 1 66
32 10 32 14 94 5 80 -12 -20 -37 17 -39 58 -1 27 0 31 7 15 l8 -20 5 20 c5 16
6 14 7 -7 0 -15 9 -34 19 -44 9 -10 18 -26 18 -36 3 -41 4 -43 14 -28 7 11 10
8 10 -16 0 -36 16 -54 46 -54 25 0 54 34 54 64 0 11 3 16 7 13 3 -4 11 -3 17
2 8 6 12 -4 13 -32 5 -76 56 -101 92 -43 29 47 27 90 -5 115 -15 12 -22 21
-15 21 12 0 -25 103 -40 108 -5 2 -7 7 -4 12 2 4 -4 15 -15 25 -11 10 -20 28
-20 39 0 31 -28 66 -51 66 -11 0 -17 5 -14 10 10 16 -6 12 -29 -7 -18 -15 -18
-14 2 8 46 53 17 138 -38 109 -21 -11 -50 -70 -50 -101 0 -15 -6 -19 -29 -17
-16 1 -27 6 -25 10 3 5 9 6 13 4 4 -3 7 16 6 41 0 35 -5 49 -22 60 -20 14 -24
13 -48 -11z m189 -54 c-6 -9 -17 -17 -25 -17 -18 0 -24 32 -8 51 11 13 14 13
28 -1 12 -12 13 -19 5 -33z m-146 11 c-4 -36 -38 -45 -38 -10 0 27 7 37 27 37
10 0 13 -9 11 -27z m207 -124 c0 -15 -7 -25 -18 -27 -22 -4 -33 24 -17 43 18
21 35 13 35 -16z m-145 -3 c0 -23 -22 -41 -34 -29 -3 4 -6 17 -6 30 0 16 6 23
20 23 14 0 20 -7 20 -24z m84 -88 c9 -12 16 -32 15 -43 0 -13 -4 -8 -10 13 -6
19 -19 37 -32 42 -16 6 -18 9 -5 9 9 1 24 -9 32 -21z m-170 -61 c-8 -23 -44
-22 -44 1 0 10 5 23 12 30 16 16 41 -8 32 -31z m143 15 c3 -25 -22 -41 -39
-24 -7 7 -6 17 2 32 14 26 32 22 37 -8z m157 -16 c-4 -9 -14 -16 -23 -14 -20
4 -27 38 -9 49 18 11 40 -13 32 -35z m-241 -98 c6 -21 -4 -48 -19 -48 -20 0
-29 27 -14 45 15 18 27 19 33 3z m145 -16 c4 -26 -26 -42 -38 -21 -11 16 7 52
23 46 7 -2 13 -13 15 -25z m155 -12 c-3 -11 -12 -20 -19 -20 -20 0 -29 27 -14
45 17 20 40 2 33 -25z"/>
<path d="M5070 6730 c-16 -16 -20 -31 -18 -64 2 -24 6 -42 10 -40 14 9 36 -8
31 -26 -3 -10 0 -21 6 -24 6 -4 11 -18 11 -30 0 -51 63 -61 89 -15 21 38 8 76
-34 96 -28 13 -32 19 -24 34 14 27 11 54 -9 72 -24 22 -38 21 -62 -3z m48 -34
c2 -9 -2 -24 -9 -32 -12 -14 -14 -14 -26 1 -9 13 -9 23 -2 37 12 22 32 19 37
-6z m57 -137 c0 -15 -7 -25 -17 -27 -13 -3 -18 3 -18 21 0 13 3 27 7 31 13 12
28 -1 28 -25z"/>
<path d="M5217 6732 c-26 -29 -22 -77 9 -101 15 -12 23 -21 18 -21 -6 0 -9
-12 -8 -27 1 -16 3 -38 3 -50 1 -13 5 -23 9 -23 4 0 7 17 6 38 l-3 37 7 -34
c4 -18 17 -40 29 -48 20 -14 24 -13 48 11 15 15 25 36 25 54 0 35 -32 67 -57
58 -16 -5 -15 -4 1 9 18 14 19 15 2 15 -14 0 -17 5 -12 24 3 14 2 36 -4 50
-12 31 -49 35 -73 8z m48 -43 c0 -15 -7 -25 -18 -27 -22 -4 -33 24 -17 43 18
21 35 13 35 -16z m63 -127 c4 -26 -26 -42 -38 -21 -11 16 7 52 23 46 7 -2 13
-13 15 -25z"/>
<path d="M5252 6503 c-10 -4 -9 -9 4 -24 21 -23 37 -24 55 -2 11 13 11 15 1 9
-8 -5 -20 -2 -30 7 -9 8 -23 12 -30 10z"/>
<path d="M5186 6458 c-30 -42 -13 -98 29 -98 43 0 74 77 43 108 -19 19 -55 14
-72 -10z m49 -39 c0 -15 -7 -25 -17 -27 -13 -3 -18 3 -18 21 0 13 3 27 7 31
13 12 28 -1 28 -25z"/>
<path d="M4860 6360 c0 -5 5 -10 11 -10 5 0 7 5 4 10 -3 6 -8 10 -11 10 -2 0
-4 -4 -4 -10z"/>
<path d="M3376 6728 c-8 -13 -16 -41 -18 -63 -2 -28 -9 -43 -23 -50 -11 -6
-29 -28 -40 -50 -11 -22 -23 -42 -28 -43 -4 -2 -4 -9 -1 -14 4 -7 2 -8 -5 -4
-6 4 -20 2 -29 -5 -14 -11 -15 -11 -4 1 25 29 6 111 -26 110 -22 -1 -52 -45
-52 -78 0 -23 35 -56 49 -47 13 8 14 3 1 -29 -13 -35 -24 -33 -65 12 -26 27
-34 43 -30 59 8 35 -11 73 -39 73 -48 0 -73 -73 -37 -109 12 -12 21 -33 21
-49 0 -44 16 -86 44 -117 14 -15 26 -37 26 -47 0 -55 55 -78 84 -36 22 32 20
65 -7 92 -13 13 -21 29 -19 35 3 8 9 4 16 -10 6 -12 25 -30 41 -39 18 -10 31
-26 33 -41 4 -28 29 -59 48 -59 18 0 54 49 54 74 0 12 -6 28 -12 35 -10 11
-10 13 0 7 23 -14 12 10 -19 37 -35 31 -37 71 -3 73 16 1 19 -4 16 -26 -5 -35
13 -70 37 -70 15 0 18 -5 14 -22 -4 -20 -3 -21 7 -6 6 10 10 20 10 23 0 3 6
18 15 35 21 40 19 57 -9 85 -25 25 -47 114 -30 116 5 0 17 2 26 4 14 3 17 -2
12 -21 -8 -32 21 -78 46 -71 13 3 17 0 13 -9 -3 -8 0 -14 6 -14 8 0 9 -5 1
-19 -27 -51 7 -114 49 -92 45 25 53 77 17 115 -21 23 -22 31 -14 69 5 23 10
49 12 58 1 9 10 24 19 33 26 27 31 63 13 91 -9 14 -21 25 -27 25 -16 0 -59
-47 -59 -65 0 -13 -3 -12 -18 3 -10 9 -17 19 -15 21 5 7 -36 32 -62 37 -17 3
-28 -2 -39 -18z m204 -43 c0 -22 -22 -40 -34 -28 -11 11 -6 51 7 56 19 7 27
-2 27 -28z m-142 -2 c-4 -36 -38 -45 -38 -10 0 27 7 37 27 37 10 0 13 -9 11
-27z m-83 -134 c0 -15 -7 -25 -17 -27 -13 -3 -18 3 -18 21 0 13 3 27 7 31 13
12 28 -1 28 -25z m145 7 c0 -23 -22 -41 -34 -29 -3 4 -6 17 -6 30 0 16 6 23
20 23 14 0 20 -7 20 -24z m-425 -17 c0 -15 -7 -25 -17 -27 -13 -3 -18 3 -18
21 0 13 3 27 7 31 13 12 28 -1 28 -25z m141 16 c4 -8 0 -22 -7 -31 -11 -13
-14 -13 -27 0 -17 17 -9 46 13 46 9 0 18 -7 21 -15z m342 -133 c4 -26 -26 -42
-38 -21 -11 16 7 52 23 46 7 -2 13 -13 15 -25z m-293 -13 c0 -15 -7 -25 -17
-27 -13 -3 -18 3 -18 21 0 13 3 27 7 31 13 12 28 -1 28 -25z m155 12 c0 -28
-24 -45 -39 -27 -15 18 -3 46 20 46 12 0 19 -7 19 -19z m-286 0 c10 -16 -5
-41 -25 -41 -19 0 -27 29 -12 43 9 10 31 9 37 -2z m51 -142 c0 -15 -7 -25 -17
-27 -13 -3 -18 3 -18 21 0 13 3 27 7 31 13 12 28 -1 28 -25z m151 16 c6 -15
-11 -45 -26 -45 -12 0 -20 28 -14 45 8 19 33 19 40 0z"/>
<path d="M3250 6718 c-20 -22 -26 -63 -12 -85 9 -14 61 -35 71 -29 3 3 8 29 9
60 2 46 -1 57 -17 66 -26 14 -27 13 -51 -12z m47 -34 c7 -19 -20 -49 -36 -40
-12 8 -15 39 -4 49 12 12 33 7 40 -9z m13 -64 c0 -5 -5 -10 -11 -10 -5 0 -7 5
-4 10 3 6 8 10 11 10 2 0 4 -4 4 -10z"/>
<path d="M3103 6696 c-23 -48 -6 -89 35 -84 59 7 68 109 9 116 -22 3 -30 -3
-44 -32z m55 -24 c4 -26 -26 -42 -38 -21 -11 16 7 52 23 46 7 -2 13 -13 15
-25z"/>
<path d="M3439 6365 c-1 -3 -2 -8 -3 -12 -1 -5 -5 -14 -10 -22 -10 -16 -27
-95 -19 -87 3 3 12 -1 20 -9 20 -20 37 -19 57 4 35 38 18 111 -26 111 -10 0
-16 5 -13 10 3 6 4 10 1 10 -3 0 -7 -2 -7 -5z m39 -69 c5 -26 -17 -49 -34 -35
-17 14 -18 31 -2 47 16 16 32 10 36 -12z"/>
<path d="M3391 6284 c0 -11 3 -14 6 -6 3 7 2 16 -1 19 -3 4 -6 -2 -5 -13z"/>
<path d="M6802 6410 c0 -14 2 -19 5 -12 2 6 2 18 0 25 -3 6 -5 1 -5 -13z"/>
<path d="M6801 6320 c-1 -3 -4 -70 -6 -150 l-3 -145 9 125 c8 106 8 188 0 170z"/>
<path d="M6787 6013 c-4 -3 -6 -47 -5 -97 l1 -91 7 95 c7 102 7 104 -3 93z"/>
<path d="M3620 6016 c-21 -21 -8 -23 51 -11 80 17 86 25 15 22 -31 -1 -61 -6
-66 -11z"/>
<path d="M3574 5979 c-2 -4 3 -12 10 -18 10 -8 16 -9 21 -1 3 5 24 10 45 10
21 0 41 3 44 8 2 4 -23 7 -56 7 -33 0 -62 -3 -64 -6z"/>
<path d="M3982 5180 c0 -19 2 -27 5 -17 2 9 2 25 0 35 -3 9 -5 1 -5 -18z"/>
<path d="M4981 6054 c-12 -15 -21 -33 -21 -40 0 -19 22 -64 31 -64 18 0 39
-34 39 -63 0 -64 48 -98 83 -59 29 32 21 82 -18 125 -23 25 -35 48 -35 66 0
27 -26 61 -48 61 -6 0 -20 -12 -31 -26z m46 -41 c-4 -31 -24 -42 -33 -19 -9
22 2 46 21 46 11 0 15 -8 12 -27z m71 -136 c3 -22 -1 -27 -17 -27 -15 0 -21 6
-21 23 0 46 33 49 38 4z"/>
<path d="M4875 5930 c-3 -5 -2 -10 4 -10 5 0 13 5 16 10 3 6 2 10 -4 10 -5 0
-13 -4 -16 -10z"/>
<path d="M4896 5918 c-9 -12 -16 -32 -16 -43 0 -29 28 -65 49 -65 42 0 70 87
39 118 -19 19 -55 14 -72 -10z m54 -44 c0 -15 -6 -24 -15 -24 -21 0 -30 27
-15 45 16 19 30 10 30 -21z"/>
<path d="M5121 5774 c-24 -31 -26 -43 -9 -79 11 -25 19 -29 48 -25 40 4 55 83
22 113 -25 23 -37 21 -61 -9z m47 -39 c-3 -28 -26 -42 -34 -20 -9 21 3 45 21
45 10 0 14 -8 13 -25z"/>
<path d="M3006 6074 c-25 -25 -30 -61 -12 -89 9 -14 23 -25 32 -25 8 0 13 -4
9 -9 -3 -5 -1 -12 5 -16 5 -3 7 -19 4 -35 -5 -22 0 -34 20 -55 14 -14 30 -24
35 -21 5 3 6 -8 2 -25 -3 -16 -9 -30 -14 -30 -4 1 -11 1 -16 1 -5 0 -12 9 -16
19 -11 35 -46 37 -73 6 -30 -36 -24 -78 18 -115 20 -18 28 -33 24 -44 -3 -9
-1 -30 6 -46 23 -56 90 -27 90 39 0 22 4 30 12 25 8 -5 9 0 5 15 -4 17 -2 21
8 17 21 -8 54 25 61 60 5 25 1 37 -15 53 -13 13 -29 20 -39 17 -13 -4 -17 0
-17 18 0 13 3 22 7 20 4 -3 5 10 2 28 -4 22 -3 29 4 20 7 -11 11 -9 15 8 7 27
27 17 27 -13 0 -31 27 -67 50 -67 27 0 53 44 48 79 -2 17 -2 30 1 29 18 -2 22
4 12 16 -9 11 -7 12 13 9 47 -9 76 76 38 110 -26 23 -37 21 -62 -10 -16 -20
-20 -36 -16 -58 3 -16 2 -24 -2 -18 -4 7 -17 11 -28 9 -17 -3 -19 1 -16 28 4
38 -26 71 -56 62 -24 -8 -46 -58 -39 -86 3 -11 1 -17 -4 -14 -5 3 -12 -2 -15
-10 -4 -10 -17 -15 -34 -14 -16 1 -26 6 -24 10 3 5 9 6 12 4 4 -2 7 15 7 38 0
66 -34 95 -69 60z m42 -55 c-1 -13 -10 -24 -18 -24 -19 0 -26 45 -8 56 18 11
30 -4 26 -32z m152 6 c0 -22 -22 -40 -34 -28 -11 11 -6 51 7 56 19 7 27 -2 27
-28z m138 -6 c-4 -28 -31 -32 -36 -6 -5 23 18 51 30 39 6 -6 8 -20 6 -33z
m-230 -126 c-3 -30 -25 -42 -34 -19 -9 22 2 46 21 46 12 0 15 -8 13 -27z m150
0 c-3 -30 -25 -42 -34 -19 -9 22 2 46 21 46 12 0 15 -8 13 -27z m-230 -140
c-3 -30 -25 -42 -34 -19 -9 22 2 46 21 46 12 0 15 -8 13 -27z m150 0 c-3 -30
-25 -42 -34 -19 -9 22 2 46 21 46 12 0 15 -8 13 -27z m-90 -136 c2 -19 -1 -27
-13 -27 -19 0 -30 24 -21 46 9 23 31 11 34 -19z"/>
<path d="M3339 5957 c-33 -25 0 -127 41 -127 10 0 26 10 34 22 44 63 -18 149
-75 105z m66 -47 c7 -12 -12 -50 -26 -50 -13 0 -22 27 -15 45 6 17 32 20 41 5z"/>
<path d="M2925 5943 c-38 -37 -46 -110 -16 -137 12 -11 21 -14 26 -7 3 6 15
11 25 11 10 0 22 4 25 10 4 6 -1 7 -12 3 -15 -6 -14 -2 5 21 26 34 28 63 6 94
-18 26 -37 28 -59 5z m45 -47 c0 -27 -28 -43 -36 -21 -9 21 3 45 21 45 9 0 15
-9 15 -24z"/>
<path d="M3265 5813 c-15 -14 -17 -21 -20 -78 -2 -38 23 -81 38 -66 15 15 30
14 21 -1 -5 -7 -2 -9 7 -6 11 4 13 -4 11 -37 -3 -35 0 -45 19 -59 22 -15 24
-14 46 6 29 27 31 78 3 103 -10 9 -25 15 -32 12 -8 -3 -14 2 -14 13 0 10 3 17
6 15 12 -8 -3 71 -17 87 -21 23 -51 29 -68 11z m53 -60 c-3 -30 -25 -42 -34
-19 -9 22 2 46 21 46 12 0 15 -8 13 -27z m67 -113 c10 -16 -5 -50 -21 -50 -17
0 -28 24 -20 45 6 17 32 20 41 5z"/>
<path d="M2841 5794 c-22 -28 -28 -78 -11 -89 6 -4 8 -11 5 -16 -3 -5 7 -17
22 -26 16 -10 27 -25 25 -34 -1 -8 2 -28 7 -42 20 -53 91 -21 91 41 0 12 -11
34 -24 47 -14 14 -27 42 -31 67 -7 45 -29 78 -51 78 -7 0 -22 -12 -33 -26z
m47 -41 c-4 -36 -38 -45 -38 -10 0 27 7 37 27 37 10 0 13 -9 11 -27z m57 -134
c0 -15 -7 -25 -17 -27 -13 -3 -18 3 -18 21 0 13 3 27 7 31 13 12 28 -1 28 -25z"/>
<path d="M3207 5679 c-46 -27 -40 -119 8 -119 49 0 75 79 37 113 -22 20 -21
20 -45 6z m33 -59 c0 -20 -5 -30 -15 -30 -18 0 -30 24 -21 45 10 28 36 17 36
-15z"/>
<path d="M5953 973 c9 -2 25 -2 35 0 9 3 1 5 -18 5 -19 0 -27 -2 -17 -5z"/>
<path d="M3640 7031 c0 -6 4 -13 10 -16 6 -3 7 1 4 9 -7 18 -14 21 -14 7z"/>
<path d="M3918 7033 c17 -2 47 -2 65 0 17 2 3 4 -33 4 -36 0 -50 -2 -32 -4z"/>
<path d="M6426 6910 c10 -36 86 -201 91 -197 2 2 -12 42 -32 88 -20 46 -34 92
-31 102 2 10 0 14 -6 11 -6 -4 -15 0 -20 7 -6 10 -7 6 -2 -11z"/>
<path d="M6534 6848 c-3 -4 11 -8 30 -8 20 0 36 2 36 4 0 8 -61 12 -66 4z"/>
<path d="M4385 6710 c-4 -6 23 -10 74 -10 47 0 81 4 81 10 0 6 -31 10 -74 10
-41 0 -78 -4 -81 -10z"/>
<path d="M6530 6637 c4 -41 5 -41 8 -8 2 18 0 37 -5 42 -5 5 -6 -11 -3 -34z"/>
<path d="M4188 6613 c12 -2 30 -2 40 0 9 3 -1 5 -23 4 -22 0 -30 -2 -17 -4z"/>
<path d="M6521 6464 c0 -11 3 -14 6 -6 3 7 2 16 -1 19 -3 4 -6 -2 -5 -13z"/>
<path d="M3840 6410 c-33 -7 -31 -7 18 -9 29 0 52 3 52 9 0 11 -17 11 -70 0z"/>
<path d="M6433 6383 c-40 -8 -44 -25 -41 -159 l3 -129 27 -3 c15 -2 37 2 49 8
16 9 23 9 29 0 4 -6 10 53 13 131 4 79 5 144 4 146 -7 6 -63 11 -84 6z"/>
<path d="M3848 6353 c6 -2 18 -2 25 0 6 3 1 5 -13 5 -14 0 -19 -2 -12 -5z"/>
<path d="M1885 6297 c-17 -13 -20 -35 -28 -281 -9 -237 -8 -269 5 -283 14 -14
17 -6 22 78 3 52 11 180 17 284 7 105 10 197 8 203 -3 10 -9 9 -24 -1z"/>
<path d="M6493 5980 c0 -30 2 -43 4 -27 2 15 2 39 0 55 -2 15 -4 2 -4 -28z"/>
<path d="M6483 5835 c0 -33 2 -45 4 -27 2 18 2 45 0 60 -2 15 -4 0 -4 -33z"/>
<path d="M1890 5690 c-13 -8 -12 -10 3 -10 9 0 17 5 17 10 0 12 -1 12 -20 0z"/>
<path d="M6304 5388 l-19 -23 23 19 c21 18 27 26 19 26 -2 0 -12 -10 -23 -22z"/>
<path d="M2936 2164 c-10 -25 1 -29 14 -5 6 12 7 21 1 21 -5 0 -12 -7 -15 -16z"/>
<path d="M2857 2003 c-8 -21 -26 -63 -40 -93 -43 -92 -99 -232 -94 -236 5 -5
57 108 57 124 0 9 24 24 42 26 16 2 17 14 3 26 -8 7 -15 16 -15 20 0 5 15 -7
34 -26 19 -19 40 -34 48 -34 10 0 10 3 -2 11 -21 15 8 7 80 -21 83 -33 47 -7
-50 35 -47 20 -89 40 -94 45 -5 5 4 38 23 81 18 39 30 73 28 76 -3 2 -11 -13
-20 -34z"/>
<path d="M2194 895 c-15 -11 -12 -14 29 -28 38 -13 48 -13 64 -2 23 17 18 22
-34 33 -31 7 -47 6 -59 -3z"/>
<path d="M2106 813 c-6 -14 -5 -15 5 -6 7 7 10 15 7 18 -3 3 -9 -2 -12 -12z"/>
<path d="M4880 810 c-8 -5 -12 -11 -9 -14 2 -3 11 -1 19 4 8 5 12 11 9 14 -2
3 -11 1 -19 -4z"/>
<path d="M5211 804 c0 -11 3 -14 6 -6 3 7 2 16 -1 19 -3 4 -6 -2 -5 -13z"/>
</g>
</svg>
